<?xml version="1.0" standalone="no"?>
<!DOCTYPE svg PUBLIC "-//W3C//DTD SVG 20010904//EN"
 "http://www.w3.org/TR/2001/REC-SVG-20010904/DTD/svg10.dtd">
<svg version="1.0" xmlns="http://www.w3.org/2000/svg"
 width="1024.000000pt" height="1024.000000pt" viewBox="0 0 1024.000000 1024.000000"
 preserveAspectRatio="xMidYMid meet">

<g transform="translate(0.000000,1024.000000) scale(0.100000,-0.100000)"
fill="#000000" stroke="none">
<path d="M4885 9204 c-392 -32 -704 -97 -1024 -215 -58 -22 -120 -46 -138 -54
-17 -8 -34 -15 -37 -15 -21 0 -333 -160 -451 -232 -264 -159 -462 -315 -691
-543 -174 -174 -192 -193 -306 -340 -411 -530 -637 -1061 -750 -1765 -21 -133
-23 -176 -23 -505 1 -287 4 -385 18 -482 38 -264 95 -509 169 -728 134 -394
349 -784 612 -1110 115 -143 128 -157 256 -286 543 -546 1203 -894 1940 -1024
386 -68 895 -74 1240 -14 478 82 921 243 1290 468 607 369 1091 893 1406 1521
339 676 460 1485 338 2255 -22 142 -88 406 -139 560 -251 754 -762 1433 -1415
1879 -475 325 -1002 526 -1595 607 -145 20 -566 33 -700 23z m249 -1242 c14
-21 26 -41 26 -45 0 -4 -29 -7 -65 -7 l-65 0 0 -54 c0 -29 3 -74 6 -100 l7
-46 83 0 c105 0 114 4 114 46 0 44 13 43 41 -2 33 -54 346 -492 501 -700 42
-57 73 -104 68 -104 -6 0 -48 11 -96 25 -243 70 -456 91 -767 75 -116 -6 -430
-20 -697 -31 -267 -11 -554 -22 -638 -26 -136 -5 -154 -4 -171 11 -19 17 -20
17 -31 -3 -9 -18 -20 -21 -71 -21 l-60 0 32 48 c149 218 406 460 659 620 207
130 447 232 675 286 93 23 290 54 406 65 9 0 28 -16 43 -37z m418 13 c586 -85
1156 -407 1482 -839 l37 -49 -45 -29 c-25 -15 -50 -28 -56 -28 -5 0 -10 -4
-10 -8 0 -5 -11 -14 -25 -20 -37 -17 -30 2 10 29 19 13 35 28 35 32 0 20 -136
170 -150 165 -17 -6 -130 -120 -130 -131 0 -7 27 -43 60 -81 33 -38 58 -71 56
-73 -2 -3 -98 -55 -213 -117 -114 -62 -244 -132 -287 -156 -44 -24 -81 -40
-83 -34 -3 8 -506 717 -675 952 -29 41 -59 82 -66 92 -13 18 -11 19 29 17 l43
-2 12 75 c21 126 27 116 -74 129 -121 15 -122 15 -122 -14 0 -14 -4 -25 -9
-25 -4 0 -29 32 -55 71 l-48 71 94 -7 c51 -3 137 -13 190 -20z m1348 -989 c0
-2 -7 -7 -16 -10 -8 -3 -12 -2 -9 4 6 10 25 14 25 6z m-2319 -145 c-100 -75
-198 -164 -275 -251 -61 -69 -181 -238 -501 -705 -64 -93 -163 -237 -220 -320
-57 -82 -158 -231 -225 -331 l-121 -180 -68 -18 c-96 -25 -94 -22 -70 -93 l20
-61 -27 -41 c-15 -23 -29 -41 -33 -41 -8 0 -54 157 -85 290 -44 189 -60 329
-60 545 1 270 26 457 95 690 59 200 189 494 228 514 46 25 99 13 176 -39 41
-27 78 -50 82 -50 4 0 25 26 47 58 l39 58 286 12 c157 7 356 15 441 19 85 3
157 7 159 9 2 2 49 4 104 4 l100 0 -92 -69z m1511 -540 c220 -56 385 -212 449
-423 27 -87 31 -233 10 -318 -37 -145 -121 -271 -233 -350 -129 -91 -281 -130
-430 -111 -49 6 -98 15 -111 20 -132 51 -200 92 -265 159 -64 67 -97 119 -130
203 -37 94 -44 134 -43 239 3 334 262 597 592 599 54 1 114 -6 161 -18z
m-2127 -613 c1 -232 22 -388 76 -563 5 -16 36 -131 69 -255 33 -124 71 -263
85 -310 13 -47 61 -218 106 -380 44 -162 89 -322 99 -355 10 -33 17 -61 15
-63 -2 -2 -40 13 -84 34 -45 20 -83 35 -86 32 -19 -19 -83 -164 -75 -172 16
-21 193 -101 197 -90 2 6 18 41 36 79 l33 69 27 -101 c15 -55 36 -126 47 -157
14 -41 16 -56 6 -56 -22 0 -210 77 -307 125 -164 82 -324 185 -476 306 -71 57
-285 283 -349 369 -84 112 -194 293 -231 378 l-26 61 31 48 c28 43 41 53 113
82 80 33 81 34 75 64 -3 17 -13 43 -21 59 -14 29 -14 30 313 519 180 269 327
489 327 489 0 0 0 -96 0 -212z m371 -1023 c64 -58 214 -169 295 -218 69 -41
295 -154 409 -205 25 -10 61 -26 80 -35 19 -8 70 -31 113 -51 43 -20 81 -36
84 -36 5 0 284 -123 418 -184 39 -17 142 -63 230 -100 l161 -69 39 -78 c22
-44 43 -79 48 -79 4 0 35 14 69 31 l61 31 41 -18 c74 -32 74 -33 -26 -87 -181
-99 -402 -183 -608 -232 -296 -70 -651 -74 -954 -12 l-109 22 -14 49 c-8 26
-12 51 -9 53 3 3 33 -2 67 -11 34 -10 65 -14 69 -9 8 8 40 152 40 177 0 14
-184 61 -200 51 -5 -3 -10 -14 -10 -23 0 -9 -4 -23 -9 -30 -5 -9 -19 24 -39
95 -16 59 -58 203 -92 318 -34 116 -91 311 -126 435 -35 124 -66 231 -69 238
-7 18 -1 15 41 -23z m2144 -2 c36 -17 104 -49 153 -72 48 -22 89 -41 92 -41 7
0 108 -46 242 -111 67 -32 126 -59 131 -59 4 0 27 -9 50 -20 28 -14 40 -25 36
-33 -88 -151 -331 -416 -508 -552 l-88 -68 -52 18 c-28 10 -85 34 -126 53 -41
19 -208 92 -370 162 -352 154 -544 238 -625 275 l-60 28 55 8 c371 57 683 189
935 398 33 27 62 48 65 47 3 -2 34 -17 70 -33z"/>
<path d="M4710 7848 c-41 -11 -76 -21 -78 -22 -3 -4 39 -178 44 -185 2 -2 46
7 100 20 l96 23 -7 50 c-3 28 -11 70 -17 94 -12 50 -21 51 -138 20z"/>
<path d="M4410 7753 c-8 -3 -48 -21 -87 -39 l-73 -33 37 -78 c20 -43 39 -82
43 -86 4 -5 27 1 51 11 24 11 65 29 92 41 l47 20 -19 48 c-52 130 -52 130 -91
116z"/>
<path d="M3991 7525 c-96 -70 -94 -68 -74 -92 10 -11 34 -43 53 -72 19 -28 39
-51 43 -51 6 0 125 76 166 106 5 4 -101 164 -108 164 -3 -1 -39 -25 -80 -55z"/>
<path d="M3719 7308 c-9 -7 -39 -39 -69 -70 l-52 -58 68 -64 69 -65 67 67 c37
37 67 70 65 74 -3 11 -119 128 -127 128 -3 0 -13 -6 -21 -12z"/>
<path d="M5775 7841 c-6 -11 -45 -159 -45 -174 0 -15 122 -58 171 -60 31 -2
32 -1 60 83 16 46 29 87 29 91 0 9 -210 68 -215 60z"/>
<path d="M6151 7677 c-34 -55 -71 -141 -63 -148 16 -15 160 -89 173 -89 11 0
99 144 99 163 0 8 -132 84 -175 100 -9 4 -21 -6 -34 -26z"/>
<path d="M6461 7431 c-28 -38 -51 -75 -51 -83 1 -14 141 -128 159 -128 12 0
121 134 121 149 0 11 -154 131 -168 131 -5 0 -32 -31 -61 -69z"/>
<path d="M3204 6583 c-55 -122 -57 -113 38 -151 93 -36 98 -37 98 -19 0 7 16
45 35 86 19 40 35 77 35 82 0 9 -143 79 -162 79 -4 0 -24 -35 -44 -77z"/>
<path d="M3081 6233 c-21 -75 -34 -150 -29 -165 4 -9 36 -21 89 -31 45 -9 83
-16 84 -14 5 6 45 178 45 191 0 10 -23 20 -72 31 -40 9 -81 18 -90 21 -13 4
-19 -4 -27 -33z"/>
<path d="M3007 5790 c-4 -35 -7 -84 -7 -110 l0 -48 88 -4 c48 -3 90 -2 94 1 4
3 10 52 14 109 l7 102 -35 0 c-19 0 -62 3 -95 6 l-60 7 -6 -63z"/>
<path d="M3075 5433 c-11 -2 -30 -6 -42 -9 -27 -5 -29 -23 -11 -136 13 -88 5
-84 122 -66 l78 12 -6 65 c-4 36 -9 83 -13 104 l-6 37 -51 -1 c-28 -1 -60 -3
-71 -6z"/>
<path d="M3355 4603 c-93 -53 -92 -46 -27 -151 31 -51 61 -91 67 -90 26 7 145
95 145 107 0 19 -102 171 -115 170 -5 0 -37 -16 -70 -36z"/>
<path d="M3575 4258 l-68 -63 73 -78 c39 -42 76 -77 81 -77 5 0 39 29 76 64
l68 64 -70 74 c-38 40 -75 74 -81 76 -6 2 -41 -26 -79 -60z"/>
<path d="M3904 4018 c-23 -27 -77 -98 -87 -114 -7 -12 147 -134 167 -134 12 1
106 134 106 150 0 19 -131 119 -156 120 -6 0 -19 -10 -30 -22z"/>
<path d="M5858 3672 c-42 -15 -80 -30 -84 -34 -10 -11 37 -169 53 -175 13 -5
171 43 186 57 12 11 -48 175 -64 177 -8 1 -49 -10 -91 -25z"/>
<path d="M5467 3590 c-32 -4 -62 -11 -66 -16 -8 -9 4 -182 13 -191 5 -5 206
23 212 30 2 2 -1 30 -6 63 -6 32 -13 74 -16 92 -5 30 -8 32 -42 31 -20 -1 -63
-5 -95 -9z"/>
<path d="M5014 3578 c-4 -6 -9 -50 -12 -98 -5 -103 -9 -100 124 -100 l82 0 6
31 c11 56 7 159 -6 164 -32 9 -189 12 -194 3z"/>
<path d="M6820 4323 c0 -5 -27 -37 -60 -73 -33 -36 -60 -67 -60 -70 0 -3 32
-34 71 -69 70 -64 72 -64 88 -44 9 12 39 48 68 80 l52 59 -73 62 c-73 61 -86
69 -86 55z"/>
<path d="M6490 3999 c-41 -33 -74 -65 -72 -71 5 -18 103 -138 112 -138 5 0 43
27 85 61 81 64 80 62 38 107 -7 7 -27 33 -44 57 -18 25 -35 45 -38 44 -3 0
-40 -27 -81 -60z"/>
</g>
</svg>
